<svg width="190" height="88" xmlns="http://www.w3.org/2000/svg">
 <metadata id="metadata65">image/svg+xml</metadata>

 <g>
  <title>background</title>
  <rect fill="none" id="canvas_background" height="90" width="192" y="-1" x="-1"/>
 </g>
 <g>
  <title>Layer 1</title>
  <g font-size="12px" font-family="'Heiti SC'" fill="#444444" id="text37"/>
  <g font-size="12px" font-family="'Heiti SC'" fill="#444444" id="text49"/>
  <g id="svg_1">
   <g id="id__59735970">
    <g font-size="40px" font-family="IDQingHuaXingKai" fill="#444444" id="text2">
     <path fill="#444444" d="m30.98,22.483499l-0.12,-0.32q0,-0.04 -0.12,-0.2q-0.2,-0.32 -0.52,-0.64q-0.16,-0.16 -0.16,-0.24l-0.32,-0.48l-0.28,-0.44l-0.92,-1.32l-0.36,-0.44l-0.48,-0.6l0,-0.32l0.64,0l0.56,0.04l0.92,0.12l0.96,0.16l0.68,0.16l0.8,0.16l0.44,0.16l0.32,0.12l1.12,1.12l0.12,0.2l0.2,0.28l0.12,0.2q0.2,0.4 0.32,0.56q0,0.12 0.16,0.56q0.2,0.4 0.32,0.52l0.16,0.48l6.08,0l0.52,0.08l0.72,0.08l0.96,0.16l0.48,0.16q0.08,0 0.44,0.24q0.36,0.24 0.48,0.24q0.12,0 0.28,0.16l0.2,0.12q0.12,0.28 0.44,0.64q0.16,0.16 0.32,0.44q0.16,0.24 0.16,0.36l0.08,0.16l0.08,0.28q0,0.2 0.16,0.64l0,0.6l-0.04,0.08q0,0.08 -0.04,0.12l-0.08,0.28l-0.16,0.32l-0.32,0.32l-0.32,0.16l-0.44,0l-1.12,-0.16l-0.76,0q-0.24,0 -0.72,0.16q-0.48,0.16 -0.84,0.16l-0.48,0.12q-0.28,0.16 -0.48,0.16q-0.28,0 -0.64,0.16l-0.48,0.12l-0.28,0.04q-0.2,0 -0.52,0.16q-0.32,0.16 -0.56,0.16l-0.64,0.16l-0.44,0.16q0,0.16 0.16,0.32q0.12,0.16 0.12,0.32l0.08,0.28l0.08,0.16l0,0.48l-0.16,0.32q-0.12,0.12 -0.6,0.36q-0.52,0.28 -0.64,0.4q-0.12,0 -0.44,0.24q-0.36,0.24 -0.48,0.24q-0.12,0 -0.24,0.12q-0.08,0.08 -0.08,0.2l0.32,1.2l-0.16,1.92l0,0.32q0.04,0.04 0.8,0.04q0.64,0 0.92,0.12q0.28,0.08 0.48,0.28q0.12,0 0.28,0.16l0.2,0.16l0.12,0.16q0,0.24 0.2,0.32l0,1.24l-0.04,0.08q0,0.08 -0.04,0.12l-0.08,0.28q-0.12,0.12 -0.4,0.8l-0.84,0.72q-0.08,0.16 -0.32,0.2q-0.32,0.12 -0.36,0.16q-0.12,0.12 -0.32,0.6q0,-0.04 -0.28,0.64q0,0.16 -0.4,0.68l-0.28,0.44l-0.12,0.28q0,0.16 -0.12,0.36q-0.08,0.16 -0.2,0.28l-0.08,0.32l-0.08,0.16l0,0.76l0.8,0l0.48,-0.08l0.44,-0.08l0.96,0q0.44,0.04 1.08,0.16q0.68,0.08 0.88,0.2l0.32,0.16q0.12,0 0.28,0.16l0.44,0.44l0.2,0.16q0,0.12 0.16,0.4q0.16,0.28 0.16,0.4l0,1.04l-0.16,0.64l-0.16,0.16l-0.32,0.08l-0.28,0.08l-1.28,0l-1.24,-0.16l-1.2,-0.04l-1.84,0q-0.2,0.08 -1.68,0.12q-1.48,0.04 -2.4,0.04q-0.2,0 -0.48,0.16q-0.28,0.16 -0.44,0.16q-0.16,0.04 -0.28,0.16q-0.24,0.12 -0.36,0.12l-0.2,0.08q-0.56,0.36 -0.68,0.44q-0.16,0.12 -0.2,0.12l-0.08,0.04q-0.08,0 -0.12,0.04l-0.28,0.08l-0.32,0q-0.16,0 -0.36,-0.12q-0.16,-0.08 -0.28,-0.2q-0.12,0 -0.36,-0.32l-0.4,-0.44l-0.16,-0.32l-0.08,-0.28q-0.04,-0.04 -0.04,-0.12l-0.04,-0.08l0,-2.32q0,-0.04 0.08,-0.12q0.04,-0.16 0.24,-0.16l0.16,-0.08l0.32,-0.08l0.76,-0.16l0.28,-0.08q0.04,-0.04 0.12,-0.04l0.08,-0.04q0.16,0 0.44,-0.24l0.48,-0.4q0.2,0 0.96,-0.76l0.32,-0.32l0.24,-0.28l0.44,-0.44q0.36,-0.36 0.72,-0.84l-2.04,0q-0.04,0 -0.76,-0.32l-0.52,-0.24l-0.56,-0.16l-0.36,-0.08l-0.16,0l-0.44,-0.28l-0.32,-0.16l-0.16,-0.16l0,-0.32l0.08,-0.16l0.08,-0.32l0.16,-0.32l0.28,-0.44q0.12,-0.16 0.24,-0.4q0.16,-0.28 0.2,-0.44l0.08,-0.2l0.08,-0.12l0.24,-0.12q0.16,-0.16 0.4,-0.16l0.96,-0.24q0.28,-0.16 0.36,-0.2l0.28,-0.16q1.08,-0.12 1.76,-0.44l0.88,-0.28q0.64,-0.2 0.68,-0.24l-0.08,-1.44q0,-0.04 -0.2,-0.12l-0.32,-0.16l-0.4,-0.28l-0.28,-0.16l-0.28,-0.08l-0.88,-0.32l-0.28,-0.08l-0.28,-0.32l-0.36,-0.16l-0.44,-0.16q-0.16,0 -0.44,-0.16l-0.48,-0.12l-0.32,-0.16l-0.16,-0.16l-0.32,-0.64l-0.48,-0.48l0,-0.12q0,-0.04 0.24,-0.28l0.24,-0.2q0.12,-0.12 0.28,-0.2q0.2,-0.12 0.36,-0.12l0.44,-0.16l1.4,-0.48l0.48,-0.12l0.44,-0.16l0.92,-0.24q0.32,-0.04 0.76,-0.16q0.44,-0.16 0.56,-0.24l0.32,-0.12q1,-0.44 1.24,-0.6l0.32,-0.2q0.24,0 0.56,-0.16q0.32,-0.16 0.52,-0.16q0.16,0 0.44,-0.16l0.32,-0.16l0.48,-0.16l0.76,-0.32q0.52,-0.2 0.64,-0.32l0.68,-0.32l2.16,-1.08l0.4,-0.24q0.36,-0.2 0.52,-0.36l0.16,-0.16l-0.16,-0.16l-0.48,-0.16l-0.6,0l-0.28,0.08l-0.36,0.08l-0.48,0.16q-0.36,0.32 -1.08,0.32l-0.32,0q-0.32,0 -0.92,0.12q-0.68,0.16 -0.96,0.16l-0.24,0.08l-0.36,0.08l-0.32,0.08l-0.48,0.24q-0.2,0 -0.52,0.16q-0.32,0.16 -0.56,0.16l-0.32,0.16q-0.2,0 -0.52,0.16q-0.32,0.16 -0.56,0.16l-0.56,0.04l-0.56,0.08q-0.24,0 -0.6,0.16q-0.44,0.16 -0.64,0.16l-1.84,0.24l-1.76,0.32l-0.6,0.08l-0.56,0.52l-0.56,0.56l-0.16,0.2q-0.12,0.16 -0.12,0.28l-0.16,0.32l-0.28,0.76l-0.32,1.04l-0.32,0.92l-0.2,0.56l-0.08,0.4l-0.08,0.52l-0.08,0.72l-0.08,0.84l0,0.16l0.08,0.48l0.08,0.32l0.16,0.32l0,0.28l-0.16,0.32l0,0.48l0.32,0.16l-0.16,0.16l-0.32,0.16l-0.36,0.08l-0.4,0.08l-0.64,0l-0.16,-0.08l-0.28,-0.24l-0.48,-0.48q-0.12,-0.16 -0.32,-0.56l-0.32,-0.68q-0.12,-0.12 -0.24,-0.44q-0.08,-0.32 -0.08,-0.52l0,-2.32l0.16,-0.48l0.2,-0.4l0.28,-0.72l0.28,-0.68l0.2,-0.4q0,-0.12 0.16,-0.4q0.16,-0.16 0.16,-0.36q0,-0.2 0.16,-0.48l0.12,-0.48l0.08,-0.44l0.08,-0.32l0,-0.28l-0.08,-0.52l-0.08,-0.92l-0.08,-0.28q-0.04,-0.04 -0.04,-0.12l-0.04,-0.08l-0.16,-0.16q-0.16,-0.16 -0.28,-0.16q0.6,-0.6 0.76,-0.6l0.32,0l0.32,0.16l0.36,0.28q0.12,0.12 0.28,0.16l0.44,0.48l0.48,0.48l0.16,0.24q0.16,0.16 0.16,0.36l0.16,0.48q0,-0.12 0.24,-0.44q0.28,-0.36 0.36,-0.48l1.12,-1.12l0.32,-0.16l0.44,-0.28q0.08,0 0.36,-0.16q0.12,-0.12 0.28,-0.16q0.16,-0.08 0.88,-0.32q0.8,-0.32 0.84,-0.32l0.28,-0.08q0.12,-0.04 0.24,-0.08q0.12,-0.04 0.28,-0.08l0.48,-0.16l0.28,-0.08q0.24,0 0.28,-0.04q0.04,-0.04 0.12,-0.04l0.08,-0.04l0.12,-0.16l0,-0.64zm9.16,17.24l-0.36,0.68l-0.48,0.36l0.28,0.48l0.44,-0.12l0.4,0.08l0.48,0l0.48,0.8l-0.4,0.92l0.04,0.84l0.4,0.44l0.44,0.24l0.72,0.6l0.76,0.04l0.76,-0.24l0.68,-0.28l0.6,-0.8q0.16,-1.28 0.16,-1.72q0,-0.16 -0.36,-0.52l-1.68,-1.68l-0.44,-0.28l-0.84,-0.2l-0.84,0.08l-0.48,0.12l-0.76,0.16z" id="path67"/>
    </g>
    <path fill="#ffffff" fill-opacity="0" stroke="#444444" d="m14.5,15.133499l38,0l0,39.875l-38,0l0,-39.875z" id="rect4"/>
    <g font-size="40px" font-family="IDQingHuaXingKai" fill="#444444" id="text6">
     <path fill="#444444" d="m74.5,23.203499l0.32,-0.08q0.12,0 0.4,-0.16q0.16,-0.16 0.36,-0.16l0.32,-0.16q0.12,0 0.28,-0.16l0.2,-0.16l0.32,-0.32l0.16,-0.44l0.28,-0.32l0.32,-0.16l1.56,0q0.44,0.16 0.64,0.16l0.32,0.16l0.16,0.16q0.12,0.12 0.28,0.12q0.44,0.44 0.64,0.48l0.16,0.16l0.12,0.2q0,0.24 0.2,0.44l0,1.24l-0.16,0.32q0,0.16 -0.12,0.32q-0.12,0.12 -0.2,0.16q-0.68,0.6 -1.56,1.08q-0.2,0 -0.48,0.28q-0.44,0.32 -0.44,0.32l-1.12,0.8l-0.16,0.16l-0.32,0.16q-0.08,0.16 -0.52,0.44l-0.56,0.48q-1.08,0.68 -2.84,1.72q-1.72,1 -1.88,1.04q-1.12,0.36 -1.84,0.68l-0.24,0.08q-0.2,0.16 -0.44,0.28q-0.2,0.08 -0.32,0.16q-0.24,0.16 -0.68,0.24l-0.64,0.08q-0.72,0.12 -1.12,0.12l0,-0.32l0.48,-0.48q0.04,-0.08 0.16,-0.2q0.16,-0.12 0.32,-0.12q0.08,-0.08 0.6,-0.4q0.44,-0.16 0.64,-0.36q0.08,-0.08 0.48,-0.32q0.32,-0.2 0.44,-0.32l0.68,-0.44q0.16,-0.16 0.24,-0.2l0.2,-0.12q0.2,-0.08 1.08,-0.88l0.64,-0.6l0.44,-0.4l0.8,-0.8l0.16,-0.32l-0.8,0l-0.16,-0.16l-0.16,-0.28l-0.44,-0.64l-0.08,-0.16l-0.08,-0.32q0,-0.24 -0.16,-0.56q-0.16,-0.32 -0.16,-0.52l-0.08,-0.36l-0.08,-0.28l0,-0.92l0.64,0l0.72,0.24l0.4,0.16l0.28,0.08l1.24,0.16l0.16,-0.08zm0.48,12.56l0.32,-0.4q0.12,-0.2 0.28,-0.36l0,-0.16q-0.2,0.12 -1.12,0.36l-1.2,0.4l-0.32,0.16l-1.72,0.64l-0.48,0.16l-0.32,0.12q-0.12,0 -0.28,0.16l-0.16,0.16l-0.36,0.32q-0.32,0.2 -0.92,0.8l-0.28,0.16l-0.4,0.28q-0.48,0.36 -0.84,0.68q-0.32,0.28 -0.56,0.44l-0.76,0.48q-0.28,0.12 -0.44,0.28q-0.12,0 -0.28,0.16q-0.16,0.16 -0.32,0.16q-0.12,0.12 -0.36,0.24q-0.24,0.08 -0.44,0.08l-1.56,0q-0.16,0 -0.36,-0.08q-0.16,-0.12 -0.24,-0.24l-0.16,-0.16l-0.16,-0.6q0,-0.16 -0.4,-1.36q-0.4,-1.16 -0.4,-1.32l0,-0.76q0.12,-0.2 0.6,-0.68l0.2,-0.28l0.32,-0.32l0.24,-0.12l0.84,-0.44l0.32,-0.2q0.16,-0.16 0.48,-0.32q0.32,-0.16 0.44,-0.16l0.16,0l0.16,0.48q0,0.12 0.08,0.24q0.12,0.08 0.24,0.08l0.76,0q0.24,0 0.52,-0.08q0.28,-0.08 0.44,-0.24l0.52,-0.2l0.88,-0.36q1.32,-0.48 1.4,-0.56l0.48,-0.16l0.72,-0.2l0.72,-0.24l1,-0.32q0.32,-0.16 0.68,-0.16q0.32,0 0.76,-0.16q0.44,-0.16 0.64,-0.16l0.32,-0.04l1.24,-0.24l0.32,-0.04l0.4,-0.08l0.36,-0.04l0.64,-0.16l0.8,-0.16l0.32,-0.08l0.28,-0.08l0.28,-0.08q0.04,-0.04 0.12,-0.04l0.08,-0.04l0.48,-0.24l0.32,-0.08l0.36,-0.08l0.24,-0.08l1.56,0l1.4,0.16l0.16,0.08l0.32,0.08q0.44,0.4 0.96,0.48q0.04,0 0.36,0.32l0.4,0.44l0.16,0.32l0,0.64l-0.32,0.32q-0.28,0.16 -0.64,0.32q-0.32,0.12 -0.44,0.12l-2.64,0l-0.52,0.08l-1.08,0.08l-1.24,0.16q-0.2,0 -0.64,0.16l-0.12,0.16q0,0.12 0.16,0.4l0.12,0.36l0,0.64q-0.08,0.24 -0.16,0.32l-0.12,0.16l-0.32,0.32l-0.96,0.76l-1.16,1.16l-1.16,1.2l-0.32,0.36l-0.32,0.4q-0.16,0.16 -0.32,0.44q-0.16,0.24 -0.16,0.36l0,0.16l0.32,0q0.36,0 1.8,-0.24q1.48,-0.28 1.8,-0.4l0.36,-0.08l0.28,-0.08l0.16,-0.16l0,-0.76q-0.16,-0.64 -0.16,-0.8l-0.16,-0.6l0,-0.32l0.32,-0.32l0.6,0l0.24,0.08l0.44,0.24q0.44,0.36 0.72,0.44q0.08,0.08 0.48,0.32q0.4,0.24 0.48,0.32l0.56,0.48l0.52,0.48q0.12,0.08 0.96,0.92q0,0.12 0.24,0.32q0.2,0.2 0.2,0.32q0,0.12 0.16,0.28q0.16,0.16 0.16,0.32q0.44,0.92 0.48,1.4l0.16,1.12l0,1.56l-0.08,0.16l-0.08,0.28l-0.16,0.32l-0.32,0.32l-0.32,0.16l-0.76,0l-0.32,-0.16l-0.92,-0.88q-0.6,-0.48 -0.96,-0.84l-0.28,-0.24q-0.28,-0.24 -0.36,-0.24l-0.28,-0.12l-0.32,-0.08l-0.24,-0.08l-0.28,-0.08l-0.56,-0.16l-0.32,-0.08l-0.28,-0.08l-0.88,-0.32l-0.28,-0.08l-1.4,0l-0.28,0.08l-0.32,0.08q-0.08,0 -0.64,0.24l-0.44,0.24l-0.32,0.16l-0.68,0.36q-0.48,0.24 -0.6,0.24q-0.12,0.12 -0.44,0.32q-0.4,0.24 -0.48,0.32l-0.48,0.44q-0.4,0.4 -0.72,0.92q-0.2,0.52 -0.36,0.68l-0.16,0.24q0,0.12 -0.2,0.28q-0.16,0.2 -0.28,0.2l-0.32,0.16l-0.76,0q-0.48,0 -0.8,-0.32l-0.32,-0.16q-0.04,-0.12 -0.36,-0.36l-0.28,-0.24q-0.24,-0.24 -0.52,-0.6q-0.24,-0.36 -0.24,-0.48l-0.08,-0.24l-0.08,-0.36l-0.08,-0.44q-0.04,-0.08 -0.04,-0.36l0,-0.76q0,-0.24 0.04,-0.32l0.08,-0.48l0.08,-0.28q0.04,-0.04 0.04,-0.12l0.04,-0.08l0.32,-0.28q0.04,-0.08 0.16,-0.2q0.16,-0.12 0.32,-0.12l0.32,-0.16l0.76,-0.32l0.36,-0.2q0.88,-0.4 1.2,-0.72q2.08,-1.88 5.96,-5.64z" id="path71"/>
    </g>
    <path fill="#ffffff" fill-opacity="0" stroke="#444444" d="m14.5,15.133499l38,0l0,39.875l-38,0l0,-39.875z" id="rect8"/>
    <g font-size="40px" font-family="IDQingHuaXingKai" fill="#444444" id="text10">
     <path fill="#444444" d="m111.9,22.643499q0,-0.16 0.16,-0.32q0.16,-0.16 0.16,-0.32l0.32,-0.16l0.6,0l0.32,0.08l0.48,0.08q0.36,0 0.68,0.16q0.32,0.16 0.56,0.16q0.2,0 0.48,0.16q0.28,0.16 0.48,0.16q0.12,0 0.44,0.16q0.32,0.16 0.48,0.32q0.12,0 0.28,0.16l0.2,0.12l0.68,0.68l0.56,0.6q0,0.2 0.16,0.36q0.16,0.28 0.16,0.4l0,0.8q0,0.12 -0.24,0.6q-0.24,0.52 -0.24,0.64l-0.08,0.28l-0.08,0.36l-0.08,0.44l-0.08,0.48l-0.12,1l-0.08,1.36l-0.08,1.2l-0.04,0.68l0,1.88q-0.08,2.48 -0.08,5.88q-0.04,0.6 -0.04,1.92l-0.08,0.68l-0.08,0.72l-0.08,0.28l-0.08,0.36l-0.08,0.24l-0.32,0.88l-0.08,0.28l-0.16,0.28l-0.16,0.2l-0.44,0.44l-0.8,0l-0.48,-0.48q-0.36,-0.32 -0.44,-0.44q-0.08,-0.04 -0.2,-0.16q-0.12,-0.16 -0.12,-0.32q-0.16,-0.16 -0.2,-0.28l-0.56,-1l-0.12,-0.2l-0.08,-0.08q-0.08,-0.08 -0.16,-0.24l-0.16,-0.2l-0.12,-0.2q-0.24,-0.2 -1.32,-1.52q-1.04,-1.32 -1.2,-1.6l-0.16,-0.16q0,-0.2 -0.16,-0.36l-0.16,-0.24l0,-0.32l1.44,0l0.24,0.04l0.88,0.24q0.08,0.04 0.28,0.04q0.32,0 0.84,0.12q0.6,0.16 0.72,0.16l0.16,0l0.16,-0.12l0,-7.52l-0.08,-0.64l-0.08,-0.6l-0.08,-0.84l-0.08,-0.72l-0.16,-3.6q0,-0.12 -0.2,-0.48q-0.16,-0.36 -0.28,-0.48l-0.56,-0.56l-0.2,-0.2l-0.64,-0.48l-0.16,-0.16l-0.16,-0.32l0,-0.76zm-11.24,16.24l0.16,-0.32l0.12,-0.24q0.16,-0.24 0.2,-0.36l0.08,-0.28l0.16,-0.52q0.2,-0.6 0.2,-0.76l0.08,-0.28q0.04,-0.04 0.04,-0.12l0.04,-0.08q0,-0.2 0.16,-0.36l0.16,-0.24q0,-0.12 0.16,-0.28q0.2,-0.2 0.32,-0.2l0.6,-0.32q0.12,0 0.28,-0.16l0.2,-0.16q0.52,-0.4 0.92,-0.92l0.32,-0.4l0.32,-0.4l0.16,-0.28l0.32,-0.32l0.16,0l0.16,0.32l-0.08,0.68l0.08,2.56l-0.64,4.52l-0.16,0.48l-0.04,0.24q-0.24,0.64 -0.24,0.76l-0.04,0.24l-0.16,1.28q0,0.2 -0.04,0.28l-0.08,0.32l-0.96,2.36l-0.32,0.64l-0.32,0.12l-0.28,0l-0.32,-0.12l-0.96,-0.96l-0.24,-0.4l-0.2,-0.36l-0.16,-0.64l-0.16,-3.92l0,-1.4zm21.56,-6.44l0.76,0l3.16,-0.16l1.4,0q0.32,0.2 0.44,0.2l0.16,0.12l0.48,0.32l0.2,0.2q0.28,0.28 0.76,0.56q0.68,0.88 0.92,1.12q0.04,0.12 0.08,0.24q0.04,0.08 0.08,0.16l0.12,0.24q0.04,0.12 0.2,0.28l0.04,0.08q0,0.08 0.04,0.12l0.08,0.28l0.08,0.36l0.08,0.24l0,1.44l-0.08,0.36l-0.08,0.4q0,0.16 -0.12,0.36q-0.08,0.16 -0.2,0.28l-0.4,0.36l-0.4,0.4l-0.6,0.32l-0.16,0.16l-1.4,0q-0.68,-0.16 -1.04,-0.32q-0.12,-0.04 -0.4,-0.16q-0.16,0 -0.44,-0.16l-0.32,-0.16q-0.64,-0.32 -0.8,-0.44q-0.12,0 -0.28,-0.16l-0.16,-0.16q-0.08,0 -0.48,-0.4l-0.28,-0.28l-0.2,-0.12l-0.28,-0.16l-0.4,-0.2l-0.44,-0.16l-0.28,-0.08l-0.32,-0.16l-0.44,-0.16l0,-0.16l0.12,-0.16l0.96,-0.16q0.2,0 0.48,-0.16q0.28,-0.16 0.44,-0.16l0.4,-0.16l0.64,-0.24q0.84,-0.28 1,-0.36l0.16,-0.16l0.16,-0.32l0,-0.16l-0.32,-0.32q-0.08,0 -0.52,-0.32q-0.4,-0.28 -0.56,-0.28l-0.32,-0.2q-0.24,-0.04 -0.44,-0.24l-0.52,-0.36l-0.76,-0.76l0,-0.48z" id="path75"/>
    </g>
    <path fill="#ffffff" fill-opacity="0" stroke="#444444" d="m55.5,15.133499l38,0l0,39.875l-38,0l0,-39.875z" id="rect12"/>
    <g font-size="40px" font-family="IDQingHuaXingKai" fill="#444444" id="text14">
     <path fill="#444444" d="m159.78,19.683499l0.16,-0.48l0.16,-0.16l2.2,0l0.16,0.08l0.28,0.08l0.32,0.16l0.32,0.32l0.32,0.44q0.12,0.12 0.36,0.64q0.24,0.52 0.24,0.64q0,0.16 0.16,0.44q0.16,0.28 0.16,0.48l0.08,0.56l0.08,0.52l0.08,1.16l0.08,1.2l0.64,0l0.6,-0.16l1.4,0l0.96,0.16l0.44,0.16q0.12,0 0.48,0.24q0.36,0.24 0.48,0.24q0.12,0 0.28,0.16l0.2,0.12q0.04,0.12 0.64,0.64l0.36,0.4l0.24,0.24l0.16,0.44l0,0.32l-0.32,0.32l-0.32,0.16l-0.68,0.68l-0.56,-0.04l-0.76,0.16l-1.16,0.36q-0.04,0.04 -0.2,0.04q-0.32,0 -0.56,-0.04q-0.4,-0.04 -0.52,0l-1.4,0.2q-0.88,3.88 -1.2,5.84l-0.2,0.52q-0.24,0.4 -0.24,0.56l-0.08,0.32l-0.08,0.16l0,0.32l1.52,-0.76q0.08,-0.04 0.24,-0.08q0.16,-0.08 0.52,-0.2l0.36,-0.08l1.12,0l0.36,0.08l0.4,0.08q0.2,0 0.48,0.16q0.28,0.16 0.44,0.16l0.32,0.16q0.12,0 0.28,0.16l0.2,0.16l0.4,0.36l0.4,0.4q0.28,0.48 0.44,0.64l0,1.08l-0.08,0.28l-0.16,0.44q-0.12,0.32 -0.2,0.48l-0.16,0.36q-0.12,0.12 -0.4,0.72l-0.4,0.84q0,0.12 -0.16,0.4q-0.16,0.24 -0.32,0.4q0,0.16 -0.28,0.44q-0.32,0.44 -0.32,0.48l0,0.48q0,0.24 0.16,0.6q0.16,0.44 0.16,0.64l-0.08,0.28l-0.08,0.36l-0.16,0.32q0,0.08 -0.24,0.24l-0.24,0.16q-0.16,0 -0.32,0.16q-0.16,0.16 -0.32,0.16l-0.24,-0.04l-0.88,-0.24l-0.28,-0.04l-0.6,-0.08l-0.48,-0.08l-0.32,0l-0.56,0.08l-1.16,0.08l-0.52,0.08l-0.4,0.08q-0.08,0 -0.4,0.32q-0.32,0.32 -0.4,0.32l-0.32,0.16q-0.28,0.16 -0.44,0.16l-0.32,0.08l-0.16,0.08l-0.16,0l-0.32,-0.16q-0.2,0 -0.6,-0.48l-0.32,-0.32l-0.4,-0.44q-0.32,-0.32 -0.44,-0.56l-0.52,-1.16q-0.16,-0.2 -0.2,-0.44l-0.08,-0.16l-0.08,-0.32q0,-0.24 -0.16,-0.56q-0.16,-0.32 -0.16,-0.52l-0.16,-0.8q0,-0.2 -0.16,-0.64q-0.16,-0.36 -0.16,-0.6q0,-0.24 -0.16,-0.72q-0.16,-0.48 -0.16,-0.84l-0.44,0q-0.24,0.12 -1.36,0.64l-0.52,0.28q-0.08,0 -0.4,0.24q-0.28,0.24 -0.4,0.24l-0.6,0.32l-0.52,0.32l-0.88,0.6q-1.2,0.88 -1.44,0.96l-0.52,0.32l-0.92,0.6l-0.96,0.64l-0.56,0.32l-0.48,0.28l-0.28,0.16q-0.12,0.12 -0.36,0.24q-0.24,0.08 -0.44,0.08l-0.32,0q-0.2,0 -0.36,-0.16q-0.28,-0.16 -0.4,-0.16q-0.12,0 -0.32,-0.16q-0.16,-0.2 -0.16,-0.28l-0.08,-0.16l-0.08,-0.32l0,-1.24l0.08,-0.16l0.08,-0.32l0.16,-0.32l0.32,-0.32q0.2,0 0.48,-0.16q0.28,-0.16 0.44,-0.16l0.32,-0.16l0.16,-0.12l0.36,-0.28l0.28,-0.2q0.08,-0.12 0.76,-0.8l0.16,-0.28l-1.08,0q-0.08,-0.08 -0.32,-0.44l-0.16,-0.2l-0.08,-0.16l-0.08,-0.32q-0.12,-0.2 -0.24,-0.56q-0.08,-0.4 -0.08,-0.68l0,-0.64l0.08,-0.24l0.08,-0.36l0.08,-0.28q0.04,-0.04 0.04,-0.12l0.04,-0.08l0.24,-0.44q0.2,-0.36 0.24,-0.44q0.36,-0.52 0.44,-0.84q0,-0.04 0.32,-0.48q0.32,-0.32 0.32,-0.44q0,-0.04 0.56,-0.36q0.56,-0.28 0.72,-0.48q0.16,-0.16 0.16,-0.32l0,-0.32l-0.48,0.08l-1.6,0.6q-0.24,-0.24 -0.24,-0.44q-0.04,-0.04 -0.04,-0.2l-0.16,-0.44l-0.32,-0.48l-0.16,-0.48q-0.12,-0.16 -0.2,-0.32l-0.28,-0.64q-0.08,-0.08 -0.28,-0.6l-0.24,-0.48l-0.08,-0.28l0,-0.16l0.28,-0.16l0.48,0l0.64,0.32l0.32,0.08l0.28,0.08l0.48,0q0.2,0 0.48,-0.16q0.28,-0.16 0.48,-0.16l0.32,-0.12l0.56,-0.28l0.52,-0.28l0.32,-0.12l0.56,-0.2l1.28,-0.44q0.68,-0.16 1.72,-0.6l2.36,-0.48q0.32,0.2 0.44,0.2l0.16,0.12l0.16,0.16l0.32,0.44l0.16,0.32l0,0.32q0,0.16 -0.12,0.36q-0.08,0.16 -0.2,0.28l-0.92,0.92l-0.48,0.32l-1.44,0.8q-0.28,0.16 -0.28,0.32l0,0.12q0.12,0.12 0.64,0.32q0.52,0.2 0.64,0.32l0.44,0.32l0.32,0.32l0.32,0.44l0.64,1.28l0,0.92l-0.04,0.08q0,0.08 -0.04,0.12l-0.08,0.28l-0.36,0.68q-0.28,0.4 -0.28,0.56q0,0.08 -0.32,0.4q-0.32,0.32 -0.32,0.4l-0.16,0.28l0.32,0l0.32,-0.12q0.12,0 0.28,-0.16l0.2,-0.16l0.56,-0.48l0.52,-0.48l0.48,0l0.32,0.16q0.16,0.32 0.52,1.44q0.04,0.36 0.32,0.76q0.24,0.36 0.24,0.48q0,0.2 0.16,0.36q0.16,0.28 0.16,0.4l0.16,0l0.32,-0.24l0.44,-0.36l0.32,-0.32l0,-1.12q0,-0.12 0.16,-0.4q0.16,-0.16 0.16,-0.36l0.16,-0.44l0.48,-1.24l0.12,-0.52q0,-0.2 0.16,-0.52l0.16,-0.4l0.08,-0.32l0.08,-0.48l0.08,-0.52l0.08,-0.4l0.04,-0.28q0,-0.36 0.04,-0.48l0.08,-0.8l0.16,-1.56l0.16,-2.12l0.12,-1.92l0.04,-1.12l0,-1.4l-0.16,-0.96l-0.16,-0.32l-0.4,-0.4l-0.4,-0.36l-0.44,-0.32l-0.32,-0.32q0,-0.16 -0.16,-0.32q-0.16,-0.16 -0.16,-0.28l0,-0.32zm-9.68,4.2l-0.32,-0.16q-0.84,-0.6 -0.92,-0.6l-0.32,-0.32q0,-0.12 -0.16,-0.28q-0.12,-0.12 -0.32,-0.56l-0.4,-0.92l-0.08,-0.28l0,-0.32l0.64,0q0.12,0 0.4,0.16q0.28,0.16 0.36,0.16l1.12,0.16l0.32,0.08l0.28,0.08q0.2,0 0.52,0.16q0.08,0.04 0.16,0.08q0.12,0.04 0.28,0.08q0.12,0 0.6,0.24q0.52,0.24 0.64,0.36l0.48,0.32l0.32,0.32l0.16,0.32l0.28,0.44q0,0.04 0.4,0.68q0.24,0.48 0.24,0.6l0,0.32l-0.16,0.28l-0.16,0.16l-0.24,0.16q-0.16,0.16 -0.36,0.16l-0.08,0.04q-0.08,0 -0.12,0.04l-0.28,0.08l-0.64,0.16q-1.04,0.48 -1.24,0.48l-0.4,0.2l-1.4,0.68l-0.4,0.2l-0.44,0.16l-0.48,0.32l-0.32,0.16q-0.16,0 -0.44,0.12q-0.28,0.16 -0.48,0.16l-0.96,0.16l-0.32,0l-0.36,-0.08l-0.24,-0.08l-0.16,-0.16q0.2,-0.08 0.84,-0.6l0.72,-0.64l0.56,-0.48q0.2,-0.12 0.52,-0.44l0.28,-0.24q0.4,-0.28 0.52,-0.4l0.48,-0.4l0.2,-0.12l0.08,-0.08l0.8,-0.8l0,-0.32zm-0.16,10.84q-0.16,0.28 -0.52,1.44l-0.04,0.24l0.04,0.36q0,0.52 -0.04,0.6l0.12,1.12l0.76,-0.36q0.08,-0.04 0.2,-0.16q0.12,-0.16 0.12,-0.32l0.36,-0.64q0.24,-0.44 0.4,-0.6q0.16,-0.16 0.32,-0.4q0.16,-0.28 0.16,-0.4l0.16,-0.32l0,-0.44l-0.2,-0.16q-0.16,-0.16 -0.28,-0.16l-0.16,0l-1.24,0.04l-0.16,0.16zm11.72,8.56l-1.72,0l0,0.28l0.16,0.32l0.32,0.48l0.16,0.32l0.12,0.44l0.16,0.32l1.12,0l0.64,-0.2l0.76,-0.24l0.24,-0.16q0.16,-0.16 0.36,-0.16q0.04,-0.08 0.16,-0.2q0.16,-0.12 0.32,-0.12l0.36,-0.28l0.28,-0.2l0.92,-0.92q0.08,-0.04 0.2,-0.16q0.12,-0.16 0.12,-0.32l0.16,-0.32l0,-0.48l-0.64,0l-4.2,1.6z" id="path79"/>
    </g>
    <path fill="#ffffff" fill-opacity="0" stroke="#444444" d="m96.5,15.133499l38,0l0,39.875l-38,0l0,-39.875z" id="rect16"/>
    <path fill="#ffffff" fill-opacity="0" stroke="#444444" d="m137.5,15.133499l38,0l0,39.875l-38,0l0,-39.875z" id="rect18"/>
   </g>
   <g font-size="12px" font-family="'Heiti SC'" fill="#444444" id="text21">
    <path fill="#444444" d="m30.34925,61.922499l1.704,0q1.356,0 2.052,0.552q0.708,0.54 0.708,1.56q0,0.564 -0.288,1.044q-0.276,0.468 -0.816,0.756q0.888,0.288 1.344,0.864q0.468,0.576 0.468,1.368q0,1.068 -0.78,1.776q-0.78,0.696 -2.016,0.696l-2.376,0l0,-8.616zm0.852,0.84l0,2.76l0.492,0q1.128,0 1.68,-0.36q0.552,-0.36 0.552,-1.128q0,-1.272 -1.728,-1.272l-0.996,0zm0,3.624l0,3.312l1.068,0q0.924,0 1.356,-0.18q0.444,-0.192 0.72,-0.576q0.276,-0.396 0.276,-0.804q0,-0.408 -0.156,-0.72q-0.156,-0.312 -0.468,-0.552q-0.3,-0.24 -0.732,-0.36q-0.42,-0.12 -1.584,-0.12l-0.48,0z" id="path84"/>
   </g>
   <g font-size="12px" font-family="'Heiti SC'" fill="#444444" id="text23">
    <path fill="#444444" d="m44.35375,64.166499l0,6.372l-0.804,0l0,-1.092q-1.092,1.308 -2.496,1.308q-1.404,0 -2.376,-0.996q-0.96,-1.008 -0.96,-2.388q0,-1.392 0.972,-2.376q0.972,-0.996 2.328,-0.996q1.56,0 2.532,1.332l0,-1.164l0.804,0zm-0.756,3.216q0,-1.092 -0.732,-1.836q-0.732,-0.756 -1.8,-0.756q-1.056,0 -1.788,0.78q-0.732,0.768 -0.732,1.824q0,1.056 0.744,1.836q0.744,0.768 1.776,0.768q1.044,0 1.788,-0.744q0.744,-0.744 0.744,-1.872z" id="path87"/>
   </g>
   <g font-size="12px" font-family="'Heiti SC'" fill="#444444" id="text25">
    <path fill="#444444" d="m46.45575,67.394499q0,-1.404 0.96,-2.4q0.972,-0.996 2.352,-0.996q1.392,0 2.352,0.996q0.972,0.996 0.972,2.388q0,1.392 -0.96,2.388q-0.948,0.984 -2.352,0.984q-1.404,0 -2.364,-0.984q-0.96,-0.996 -0.96,-2.376zm5.808,0.012q0,-1.056 -0.744,-1.824q-0.732,-0.78 -1.752,-0.78q-1.008,0 -1.74,0.78q-0.732,0.768 -0.732,1.836q0,1.068 0.708,1.812q0.708,0.744 1.752,0.744q1.056,0 1.776,-0.744q0.732,-0.756 0.732,-1.824z" id="path90"/>
   </g>
   <g font-size="12px" font-family="'Heiti SC'" fill="#444444" id="text27">
    <path fill="#444444" d="m55.19675,64.166499l0.864,0l2.196,4.908l2.124,-4.908l0.876,0l-3.804,8.7l-0.864,0l1.224,-2.808l-2.616,-5.892z" id="path93"/>
   </g>
   <g font-size="12px" font-family="'Heiti SC'" fill="#444444" id="text29">
    <path fill="#444444" d="m68.97775,70.538499l-0.828,0l0,-1.14q-0.984,1.308 -2.388,1.308q-0.72,0 -1.296,-0.384q-0.576,-0.396 -0.816,-1.02q-0.24,-0.636 -0.24,-1.86l0,-3.276l0.816,0l0,3.036q0,1.116 0.096,1.512q0.108,0.396 0.312,0.672q0.216,0.276 0.54,0.42q0.324,0.144 0.78,0.144q0.468,0 0.912,-0.228q0.444,-0.228 0.756,-0.636q0.312,-0.408 0.42,-0.84q0.108,-0.432 0.108,-1.74l0,-2.34l0.828,0l0,6.372z" id="path96"/>
   </g>
   <g font-size="12px" font-family="'Heiti SC'" fill="#444444" id="text31">
    <path fill="#444444" d="m71.31825,64.166499l0.828,0l0,1.14q0.984,-1.308 2.388,-1.308q0.72,0 1.296,0.396q0.576,0.384 0.816,1.02q0.24,0.624 0.24,1.848l0,3.276l-0.816,0l0,-3.036q0,-1.116 -0.108,-1.512q-0.096,-0.396 -0.312,-0.672q-0.204,-0.276 -0.528,-0.42q-0.324,-0.144 -0.792,-0.144q-0.456,0 -0.9,0.228q-0.444,0.228 -0.756,0.636q-0.312,0.408 -0.42,0.84q-0.108,0.432 -0.108,1.74l0,2.34l-0.828,0l0,-6.372z" id="path99"/>
   </g>
   <g font-size="12px" font-family="'Heiti SC'" fill="#444444" id="text33">
    <path fill="#444444" d="m79.70675,64.418499l-0.6,0l-0.132,-2.712l0.864,0l-0.132,2.712z" id="path102"/>
   </g>
   <g font-size="12px" font-family="'Heiti SC'" fill="#444444" id="text35">
    <path fill="#444444" d="m85.83475,64.862499l-0.528,0.54q-0.66,-0.636 -1.284,-0.636q-0.408,0 -0.684,0.264q-0.276,0.252 -0.276,0.636q0,0.372 0.288,0.648q0.3,0.264 1.02,0.648q0.72,0.372 1.092,0.816q0.384,0.432 0.384,1.068q0,0.804 -0.564,1.356q-0.552,0.552 -1.368,0.552q-0.54,0 -1.044,-0.24q-0.492,-0.24 -0.84,-0.672l0.516,-0.576q0.636,0.708 1.332,0.708q0.492,0 0.84,-0.324q0.348,-0.324 0.348,-0.756q0,-0.444 -0.312,-0.72q-0.3,-0.288 -1.02,-0.648q-0.708,-0.36 -1.068,-0.78q-0.348,-0.432 -0.348,-1.104q0,-0.684 0.492,-1.164q0.504,-0.48 1.32,-0.48q0.828,0 1.704,0.864z" id="path105"/>
   </g>
   <g font-size="12px" font-family="'Heiti SC'" fill="#444444" id="text39">
    <path fill="#444444" d="m95.62475,68.930499l0.732,-0.432q0.768,1.416 1.788,1.416q0.66,0 1.128,-0.42q0.468,-0.42 0.468,-1.044q0,-0.492 -0.396,-0.996q-0.396,-0.504 -1.32,-1.188q-0.912,-0.696 -1.236,-1.032q-0.312,-0.348 -0.468,-0.732q-0.144,-0.396 -0.144,-0.792q0,-0.84 0.588,-1.416q0.6,-0.588 1.5,-0.588q0.708,0 1.236,0.36q0.528,0.348 1.02,1.044l-0.696,0.54q-0.336,-0.456 -0.696,-0.756q-0.36,-0.3 -0.888,-0.3q-0.516,0 -0.852,0.312q-0.324,0.312 -0.324,0.792q0,0.48 0.288,0.84q0.3,0.348 1.332,1.116q1.044,0.768 1.512,1.416q0.48,0.648 0.48,1.368q0,0.936 -0.732,1.632q-0.72,0.684 -1.68,0.684q-1.692,0 -2.64,-1.824z" id="path109"/>
   </g>
   <g font-size="12px" font-family="'Heiti SC'" fill="#444444" id="text41">
    <path fill="#444444" d="m102.88075,64.166499l0.816,0l0,1.104q0.852,-1.272 2.184,-1.272q0.708,0 1.26,0.408q0.564,0.396 0.756,1.128q0.396,-0.744 1.008,-1.14q0.612,-0.396 1.404,-0.396q0.804,0 1.452,0.624q0.648,0.612 0.648,2.436l0,3.48l-0.84,0l0,-3.48q0,-0.876 -0.108,-1.284q-0.108,-0.42 -0.468,-0.696q-0.36,-0.288 -0.96,-0.288q-0.588,0 -1.104,0.396q-0.516,0.396 -0.708,1.008q-0.192,0.612 -0.192,1.848l0,2.496l-0.804,0l0,-3.264q0,-1.02 -0.108,-1.452q-0.108,-0.444 -0.48,-0.732q-0.372,-0.3 -0.912,-0.3q-0.54,0 -1.02,0.324q-0.468,0.312 -0.744,0.864q-0.264,0.552 -0.264,1.86l0,2.7l-0.816,0l0,-6.372z" id="path112"/>
   </g>
   <g font-size="12px" font-family="'Heiti SC'" fill="#444444" id="text43">
    <path fill="#444444" d="m121.16625,64.166499l0,6.372l-0.804,0l0,-1.092q-1.092,1.308 -2.496,1.308q-1.404,0 -2.376,-0.996q-0.96,-1.008 -0.96,-2.388q0,-1.392 0.972,-2.376q0.972,-0.996 2.328,-0.996q1.56,0 2.532,1.332l0,-1.164l0.804,0zm-0.756,3.216q0,-1.092 -0.732,-1.836q-0.732,-0.756 -1.8,-0.756q-1.056,0 -1.788,0.78q-0.732,0.768 -0.732,1.824q0,1.056 0.744,1.836q0.744,0.768 1.776,0.768q1.044,0 1.788,-0.744q0.744,-0.744 0.744,-1.872z" id="path115"/>
   </g>
   <g font-size="12px" font-family="'Heiti SC'" fill="#444444" id="text45">
    <path fill="#444444" d="m123.26075,61.706499l0.816,0l0,8.832l-0.816,0l0,-8.832z" id="path118"/>
   </g>
   <g font-size="12px" font-family="'Heiti SC'" fill="#444444" id="text47">
    <path fill="#444444" d="m126.19825,61.706499l0.816,0l0,8.832l-0.816,0l0,-8.832z" id="path121"/>
   </g>
   <g font-size="12px" font-family="'Heiti SC'" fill="#444444" id="text51">
    <path fill="#444444" d="m136.68725,68.930499l0.732,-0.432q0.768,1.416 1.788,1.416q0.66,0 1.128,-0.42q0.468,-0.42 0.468,-1.044q0,-0.492 -0.396,-0.996q-0.396,-0.504 -1.32,-1.188q-0.912,-0.696 -1.236,-1.032q-0.312,-0.348 -0.468,-0.732q-0.144,-0.396 -0.144,-0.792q0,-0.84 0.588,-1.416q0.6,-0.588 1.5,-0.588q0.708,0 1.236,0.36q0.528,0.348 1.02,1.044l-0.696,0.54q-0.336,-0.456 -0.696,-0.756q-0.36,-0.3 -0.888,-0.3q-0.516,0 -0.852,0.312q-0.324,0.312 -0.324,0.792q0,0.48 0.288,0.84q0.3,0.348 1.332,1.116q1.044,0.768 1.512,1.416q0.48,0.648 0.48,1.368q0,0.936 -0.732,1.632q-0.72,0.684 -1.68,0.684q-1.692,0 -2.64,-1.824z" id="path125"/>
   </g>
   <g font-size="12px" font-family="'Heiti SC'" fill="#444444" id="text53">
    <path fill="#444444" d="m143.93425,62.390499q0,-0.276 0.192,-0.48q0.204,-0.204 0.48,-0.204q0.288,0 0.48,0.204q0.204,0.192 0.204,0.48q0,0.276 -0.204,0.48q-0.192,0.192 -0.48,0.192q-0.276,0 -0.48,-0.204q-0.192,-0.204 -0.192,-0.468zm0.264,1.776l0.828,0l0,6.372l-0.828,0l0,-6.372z" id="path128"/>
   </g>
   <g font-size="12px" font-family="'Heiti SC'" fill="#444444" id="text55">
    <path fill="#444444" d="m149.55375,69.530499q0,0.324 0.084,0.384q0.084,0.06 0.432,0.06l0.492,0l0,0.696q-0.504,0.084 -0.792,0.084q-0.54,0 -0.792,-0.264q-0.252,-0.264 -0.252,-0.828l0,-4.8l-1.128,0l0,-0.696l1.128,0l0,-2.46l0.828,0l0,2.46l1.296,0l0,0.696l-1.296,0l0,4.668z" id="path131"/>
   </g>
   <g font-size="12px" font-family="'Heiti SC'" fill="#444444" id="text57">
    <path fill="#444444" d="m158.74475,68.474499l0.696,0.36q-1.032,1.92 -3.048,1.92q-1.44,0 -2.376,-0.984q-0.936,-0.996 -0.936,-2.388q0,-1.392 0.936,-2.388q0.948,-0.996 2.328,-0.996q1.392,0 2.328,0.924q0.948,0.924 0.984,2.52l-5.736,0q0.036,1.152 0.72,1.86q0.696,0.696 1.68,0.696q1.62,0 2.424,-1.524zm0,-1.74q-0.168,-0.912 -0.84,-1.428q-0.672,-0.516 -1.548,-0.516q-1.8,0 -2.352,1.944l4.74,0z" id="path134"/>
   </g>
  </g>
 </g>
</svg>